<svg id="visual" viewBox="0 0 900 900" width="900" height="900" xmlns="http://www.w3.org/2000/svg" xmlns:xlink="http://www.w3.org/1999/xlink" version="1.1"><g transform="translate(399.4006010085049 392.84161640535194)"><path d="M159.6 -219.1C195.7 -193.4 206.3 -131.9 246.6 -66.3C286.9 -0.7 357 69 346.6 116.2C336.2 163.4 245.4 188.1 174.2 239.6C103.1 291.2 51.5 369.6 -18.3 394.8C-88.2 420 -176.3 392 -216.1 330.3C-255.9 268.6 -247.3 173.1 -241.1 100.1C-234.9 27.1 -231.1 -23.4 -233.4 -94.3C-235.8 -165.2 -244.3 -256.5 -206.4 -281.7C-168.5 -306.9 -84.2 -266 -11.3 -250.5C61.7 -235 123.4 -244.9 159.6 -219.1" fill="#043a87"></path></g></svg>